<mxfile host="Electron" agent="Mozilla/5.0 (Macintosh; Intel Mac OS X 10_15_7) AppleWebKit/537.36 (KHTML, like Gecko) draw.io/26.0.4 Chrome/128.0.6613.186 Electron/32.2.5 Safari/537.36" version="26.0.4">
  <diagram name="Page-1" id="SZZ0gEDGvlN5G_9kjv5t">
    <mxGraphModel dx="2052" dy="1320" grid="0" gridSize="10" guides="1" tooltips="1" connect="1" arrows="1" fold="1" page="1" pageScale="1" pageWidth="1654" pageHeight="1169" math="0" shadow="0">
      <root>
        <mxCell id="0" />
        <mxCell id="1" parent="0" />
        <mxCell id="HjpI4oTt8wgdMNK6Tnfc-30" value="" style="rounded=0;whiteSpace=wrap;html=1;fillColor=#CCCCCC;" parent="1" vertex="1">
          <mxGeometry x="313" y="635.5" width="766" height="121" as="geometry" />
        </mxCell>
        <mxCell id="HjpI4oTt8wgdMNK6Tnfc-23" value="" style="rounded=0;whiteSpace=wrap;html=1;fillColor=#CCCCCC;" parent="1" vertex="1">
          <mxGeometry x="313" y="469.5" width="766" height="121" as="geometry" />
        </mxCell>
        <mxCell id="HjpI4oTt8wgdMNK6Tnfc-20" value="" style="rounded=0;whiteSpace=wrap;html=1;fillColor=#CCCCCC;" parent="1" vertex="1">
          <mxGeometry x="313" y="286.5" width="766" height="121" as="geometry" />
        </mxCell>
        <mxCell id="HjpI4oTt8wgdMNK6Tnfc-3" style="edgeStyle=orthogonalEdgeStyle;rounded=0;orthogonalLoop=1;jettySize=auto;html=1;exitX=1;exitY=0.5;exitDx=0;exitDy=0;strokeWidth=2;" parent="1" source="HjpI4oTt8wgdMNK6Tnfc-1" target="HjpI4oTt8wgdMNK6Tnfc-2" edge="1">
          <mxGeometry relative="1" as="geometry">
            <Array as="points">
              <mxPoint x="241" y="530" />
              <mxPoint x="241" y="347" />
            </Array>
          </mxGeometry>
        </mxCell>
        <mxCell id="HjpI4oTt8wgdMNK6Tnfc-1" value="MEMS DEVICE&lt;div&gt;Vb = 1.25V&lt;/div&gt;" style="rounded=0;whiteSpace=wrap;html=1;strokeWidth=2;" parent="1" vertex="1">
          <mxGeometry x="187" y="494" width="108" height="72" as="geometry" />
        </mxCell>
        <mxCell id="HjpI4oTt8wgdMNK6Tnfc-5" style="edgeStyle=orthogonalEdgeStyle;rounded=0;orthogonalLoop=1;jettySize=auto;html=1;exitX=1;exitY=0.5;exitDx=0;exitDy=0;entryX=0;entryY=0.5;entryDx=0;entryDy=0;strokeWidth=2;" parent="1" source="HjpI4oTt8wgdMNK6Tnfc-2" target="HjpI4oTt8wgdMNK6Tnfc-4" edge="1">
          <mxGeometry relative="1" as="geometry" />
        </mxCell>
        <mxCell id="HjpI4oTt8wgdMNK6Tnfc-2" value="GAIN AMP&lt;div&gt;G = 2000&lt;/div&gt;" style="rounded=0;whiteSpace=wrap;html=1;strokeWidth=2;" parent="1" vertex="1">
          <mxGeometry x="438" y="311" width="108" height="72" as="geometry" />
        </mxCell>
        <mxCell id="HjpI4oTt8wgdMNK6Tnfc-7" style="edgeStyle=orthogonalEdgeStyle;rounded=0;orthogonalLoop=1;jettySize=auto;html=1;exitX=1;exitY=0.5;exitDx=0;exitDy=0;entryX=0;entryY=0.5;entryDx=0;entryDy=0;strokeWidth=2;" parent="1" source="HjpI4oTt8wgdMNK6Tnfc-4" target="HjpI4oTt8wgdMNK6Tnfc-6" edge="1">
          <mxGeometry relative="1" as="geometry" />
        </mxCell>
        <mxCell id="HjpI4oTt8wgdMNK6Tnfc-4" value="LPF&lt;div&gt;f_c = 178KHz&lt;/div&gt;" style="rounded=0;whiteSpace=wrap;html=1;strokeWidth=2;" parent="1" vertex="1">
          <mxGeometry x="689" y="311" width="108" height="72" as="geometry" />
        </mxCell>
        <mxCell id="HjpI4oTt8wgdMNK6Tnfc-6" value="ADC&lt;div&gt;f_s = 4MSPS&lt;/div&gt;" style="rounded=0;whiteSpace=wrap;html=1;strokeWidth=2;" parent="1" vertex="1">
          <mxGeometry x="940" y="311" width="108" height="72" as="geometry" />
        </mxCell>
        <mxCell id="HjpI4oTt8wgdMNK6Tnfc-25" style="edgeStyle=orthogonalEdgeStyle;rounded=0;orthogonalLoop=1;jettySize=auto;html=1;exitX=0;exitY=0.5;exitDx=0;exitDy=0;entryX=1;entryY=0.5;entryDx=0;entryDy=0;strokeWidth=2;" parent="1" source="HjpI4oTt8wgdMNK6Tnfc-8" target="HjpI4oTt8wgdMNK6Tnfc-24" edge="1">
          <mxGeometry relative="1" as="geometry" />
        </mxCell>
        <mxCell id="HjpI4oTt8wgdMNK6Tnfc-8" value="DAC or DDS" style="rounded=0;whiteSpace=wrap;html=1;strokeWidth=2;" parent="1" vertex="1">
          <mxGeometry x="940" y="660" width="108" height="72" as="geometry" />
        </mxCell>
        <mxCell id="HjpI4oTt8wgdMNK6Tnfc-14" style="edgeStyle=orthogonalEdgeStyle;rounded=0;orthogonalLoop=1;jettySize=auto;html=1;exitX=1;exitY=0.5;exitDx=0;exitDy=0;entryX=0;entryY=0.5;entryDx=0;entryDy=0;strokeWidth=2;" parent="1" source="HjpI4oTt8wgdMNK6Tnfc-15" target="HjpI4oTt8wgdMNK6Tnfc-17" edge="1">
          <mxGeometry relative="1" as="geometry" />
        </mxCell>
        <mxCell id="HjpI4oTt8wgdMNK6Tnfc-15" value="GAIN AMP" style="rounded=0;whiteSpace=wrap;html=1;strokeWidth=2;" parent="1" vertex="1">
          <mxGeometry x="438" y="494" width="108" height="72" as="geometry" />
        </mxCell>
        <mxCell id="HjpI4oTt8wgdMNK6Tnfc-16" style="edgeStyle=orthogonalEdgeStyle;rounded=0;orthogonalLoop=1;jettySize=auto;html=1;exitX=1;exitY=0.5;exitDx=0;exitDy=0;entryX=0;entryY=0.5;entryDx=0;entryDy=0;strokeWidth=2;" parent="1" source="HjpI4oTt8wgdMNK6Tnfc-17" target="HjpI4oTt8wgdMNK6Tnfc-18" edge="1">
          <mxGeometry relative="1" as="geometry" />
        </mxCell>
        <mxCell id="HjpI4oTt8wgdMNK6Tnfc-17" value="LPF" style="rounded=0;whiteSpace=wrap;html=1;strokeWidth=2;" parent="1" vertex="1">
          <mxGeometry x="689" y="494" width="108" height="72" as="geometry" />
        </mxCell>
        <mxCell id="HjpI4oTt8wgdMNK6Tnfc-18" value="ADC&lt;div&gt;f_s = 4MSPS&lt;br&gt;&lt;/div&gt;" style="rounded=0;whiteSpace=wrap;html=1;strokeWidth=2;" parent="1" vertex="1">
          <mxGeometry x="940" y="494" width="108" height="72" as="geometry" />
        </mxCell>
        <mxCell id="HjpI4oTt8wgdMNK6Tnfc-21" value="&lt;font style=&quot;font-size: 18px;&quot;&gt;PR Sensing&lt;/font&gt;" style="text;html=1;align=left;verticalAlign=middle;whiteSpace=wrap;rounded=0;" parent="1" vertex="1">
          <mxGeometry x="313" y="264" width="122" height="22.5" as="geometry" />
        </mxCell>
        <mxCell id="HjpI4oTt8wgdMNK6Tnfc-27" style="edgeStyle=orthogonalEdgeStyle;rounded=0;orthogonalLoop=1;jettySize=auto;html=1;exitX=0;exitY=0.5;exitDx=0;exitDy=0;strokeWidth=2;" parent="1" source="HjpI4oTt8wgdMNK6Tnfc-24" target="HjpI4oTt8wgdMNK6Tnfc-26" edge="1">
          <mxGeometry relative="1" as="geometry" />
        </mxCell>
        <mxCell id="HjpI4oTt8wgdMNK6Tnfc-24" value="GAIN AMP" style="rounded=0;whiteSpace=wrap;html=1;strokeWidth=2;" parent="1" vertex="1">
          <mxGeometry x="689" y="660" width="108" height="72" as="geometry" />
        </mxCell>
        <mxCell id="HjpI4oTt8wgdMNK6Tnfc-28" style="edgeStyle=orthogonalEdgeStyle;rounded=0;orthogonalLoop=1;jettySize=auto;html=1;exitX=0;exitY=0.5;exitDx=0;exitDy=0;entryX=0.5;entryY=1;entryDx=0;entryDy=0;strokeWidth=2;" parent="1" source="HjpI4oTt8wgdMNK6Tnfc-26" target="HjpI4oTt8wgdMNK6Tnfc-1" edge="1">
          <mxGeometry relative="1" as="geometry" />
        </mxCell>
        <mxCell id="HjpI4oTt8wgdMNK6Tnfc-29" style="edgeStyle=orthogonalEdgeStyle;rounded=0;orthogonalLoop=1;jettySize=auto;html=1;exitX=0;exitY=0.5;exitDx=0;exitDy=0;entryX=0;entryY=0.5;entryDx=0;entryDy=0;strokeWidth=2;" parent="1" source="HjpI4oTt8wgdMNK6Tnfc-26" target="HjpI4oTt8wgdMNK6Tnfc-15" edge="1">
          <mxGeometry relative="1" as="geometry">
            <Array as="points">
              <mxPoint x="423" y="696" />
              <mxPoint x="423" y="530" />
            </Array>
          </mxGeometry>
        </mxCell>
        <mxCell id="HjpI4oTt8wgdMNK6Tnfc-26" value="B&lt;span style=&quot;background-color: transparent; color: light-dark(rgb(0, 0, 0), rgb(255, 255, 255));&quot;&gt;PF&lt;/span&gt;" style="rounded=0;whiteSpace=wrap;html=1;strokeWidth=2;" parent="1" vertex="1">
          <mxGeometry x="438" y="660" width="108" height="72" as="geometry" />
        </mxCell>
        <mxCell id="HjpI4oTt8wgdMNK6Tnfc-32" value="&lt;font style=&quot;font-size: 18px;&quot;&gt;PE Actuation&lt;/font&gt;" style="text;html=1;align=left;verticalAlign=middle;whiteSpace=wrap;rounded=0;" parent="1" vertex="1">
          <mxGeometry x="313" y="613" width="122" height="22.5" as="geometry" />
        </mxCell>
        <mxCell id="HjpI4oTt8wgdMNK6Tnfc-33" value="&lt;font style=&quot;font-size: 18px;&quot;&gt;Actuation Sensing&lt;/font&gt;" style="text;html=1;align=left;verticalAlign=middle;whiteSpace=wrap;rounded=0;" parent="1" vertex="1">
          <mxGeometry x="313" y="447" width="161" height="22.5" as="geometry" />
        </mxCell>
        <mxCell id="HjpI4oTt8wgdMNK6Tnfc-36" style="edgeStyle=orthogonalEdgeStyle;rounded=0;orthogonalLoop=1;jettySize=auto;html=1;exitX=0;exitY=0.5;exitDx=0;exitDy=0;strokeWidth=2;endArrow=none;endFill=0;" parent="1" source="HjpI4oTt8wgdMNK6Tnfc-34" target="HjpI4oTt8wgdMNK6Tnfc-6" edge="1">
          <mxGeometry relative="1" as="geometry" />
        </mxCell>
        <mxCell id="HjpI4oTt8wgdMNK6Tnfc-37" style="edgeStyle=orthogonalEdgeStyle;rounded=0;orthogonalLoop=1;jettySize=auto;html=1;exitX=0;exitY=0.5;exitDx=0;exitDy=0;strokeWidth=2;endArrow=none;endFill=0;" parent="1" source="HjpI4oTt8wgdMNK6Tnfc-34" target="HjpI4oTt8wgdMNK6Tnfc-18" edge="1">
          <mxGeometry relative="1" as="geometry" />
        </mxCell>
        <mxCell id="HjpI4oTt8wgdMNK6Tnfc-38" style="edgeStyle=orthogonalEdgeStyle;rounded=0;orthogonalLoop=1;jettySize=auto;html=1;exitX=0;exitY=0.5;exitDx=0;exitDy=0;strokeWidth=2;endArrow=none;endFill=0;" parent="1" source="HjpI4oTt8wgdMNK6Tnfc-34" target="HjpI4oTt8wgdMNK6Tnfc-8" edge="1">
          <mxGeometry relative="1" as="geometry" />
        </mxCell>
        <mxCell id="HjpI4oTt8wgdMNK6Tnfc-34" value="MCU" style="rounded=0;whiteSpace=wrap;html=1;strokeWidth=2;" parent="1" vertex="1">
          <mxGeometry x="1142" y="308" width="120" height="443" as="geometry" />
        </mxCell>
        <mxCell id="HjpI4oTt8wgdMNK6Tnfc-58" value="&lt;font style=&quot;font-size: 8px;&quot;&gt;Specs&lt;/font&gt;" style="swimlane;fontStyle=0;childLayout=stackLayout;horizontal=1;startSize=12;horizontalStack=0;resizeParent=1;resizeParentMax=0;resizeLast=0;collapsible=1;marginBottom=0;whiteSpace=wrap;html=1;movable=1;resizable=1;rotatable=1;deletable=1;editable=1;locked=0;connectable=1;rounded=1;swimlaneLine=1;shadow=0;glass=0;align=right;" parent="1" vertex="1" collapsed="1">
          <mxGeometry x="254" y="331" width="41" height="12" as="geometry">
            <mxRectangle x="254" y="331" width="136" height="81" as="alternateBounds" />
          </mxGeometry>
        </mxCell>
        <mxCell id="HjpI4oTt8wgdMNK6Tnfc-59" value="&lt;font style=&quot;font-size: 8px;&quot;&gt;FS deflection =&amp;nbsp;± 600nm&lt;/font&gt;" style="text;align=left;verticalAlign=middle;spacingLeft=4;spacingRight=4;overflow=hidden;points=[[0,0.5],[1,0.5]];portConstraint=eastwest;rotatable=0;whiteSpace=wrap;html=1;rounded=0;fillColor=default;" parent="HjpI4oTt8wgdMNK6Tnfc-58" vertex="1">
          <mxGeometry y="12" width="136" height="16" as="geometry" />
        </mxCell>
        <mxCell id="HjpI4oTt8wgdMNK6Tnfc-60" value="&lt;font style=&quot;font-size: 8px;&quot;&gt;FS voltage =&amp;nbsp;± 0.414mV&lt;/font&gt;" style="text;align=left;verticalAlign=middle;spacingLeft=4;spacingRight=4;overflow=hidden;points=[[0,0.5],[1,0.5]];portConstraint=eastwest;rotatable=0;whiteSpace=wrap;html=1;fillColor=default;" parent="HjpI4oTt8wgdMNK6Tnfc-58" vertex="1">
          <mxGeometry y="28" width="136" height="19" as="geometry" />
        </mxCell>
        <mxCell id="HjpI4oTt8wgdMNK6Tnfc-62" value="&lt;font style=&quot;font-size: 8px;&quot;&gt;sensitivity = 828.6nV/nm&lt;/font&gt;&lt;span style=&quot;color: rgba(0, 0, 0, 0); font-family: monospace; font-size: 0px; text-wrap: nowrap;&quot;&gt;%3CmxGraphModel%3E%3Croot%3E%3CmxCell%20id%3D%220%22%2F%3E%3CmxCell%20id%3D%221%22%20parent%3D%220%22%2F%3E%3CmxCell%20id%3D%222%22%20value%3D%22%26lt%3Bfont%20style%3D%26quot%3Bfont-size%3A%208px%3B%26quot%3B%26gt%3BVb%20%3D%201.25%26lt%3B%2Ffont%26gt%3B%22%20style%3D%22text%3BstrokeColor%3Dnone%3BfillColor%3Dnone%3Balign%3Dleft%3BverticalAlign%3Dmiddle%3BspacingLeft%3D4%3BspacingRight%3D4%3Boverflow%3Dhidden%3Bpoints%3D%5B%5B0%2C0.5%5D%2C%5B1%2C0.5%5D%5D%3BportConstraint%3Deastwest%3Brotatable%3D0%3BwhiteSpace%3Dwrap%3Bhtml%3D1%3B%22%20vertex%3D%221%22%20parent%3D%221%22%3E%3CmxGeometry%20y%3D%22532%22%20width%3D%22118%22%20height%3D%2217%22%20as%3D%22geometry%22%2F%3E%3C%2FmxCell%3E%3C%2Froot%3E%3C%2FmxGraphModel%3E&lt;/span&gt;" style="text;align=left;verticalAlign=middle;spacingLeft=4;spacingRight=4;overflow=hidden;points=[[0,0.5],[1,0.5]];portConstraint=eastwest;rotatable=0;whiteSpace=wrap;html=1;fillColor=default;" parent="HjpI4oTt8wgdMNK6Tnfc-58" vertex="1">
          <mxGeometry y="47" width="136" height="17" as="geometry" />
        </mxCell>
        <mxCell id="HjpI4oTt8wgdMNK6Tnfc-68" value="&lt;font style=&quot;font-size: 8px;&quot;&gt;e_n @55kHz = 1.17nV/rtHz&lt;/font&gt;" style="text;align=left;verticalAlign=middle;spacingLeft=4;spacingRight=4;overflow=hidden;points=[[0,0.5],[1,0.5]];portConstraint=eastwest;rotatable=0;whiteSpace=wrap;html=1;fillColor=default;" parent="HjpI4oTt8wgdMNK6Tnfc-58" vertex="1">
          <mxGeometry y="64" width="136" height="17" as="geometry" />
        </mxCell>
        <mxCell id="HjpI4oTt8wgdMNK6Tnfc-63" value="&lt;font style=&quot;font-size: 8px;&quot;&gt;Specs&lt;/font&gt;" style="swimlane;fontStyle=0;childLayout=stackLayout;horizontal=1;startSize=12;horizontalStack=0;resizeParent=1;resizeParentMax=0;resizeLast=0;collapsible=1;marginBottom=0;whiteSpace=wrap;html=1;movable=1;resizable=1;rotatable=1;deletable=1;editable=1;locked=0;connectable=1;rounded=1;swimlaneLine=1;shadow=0;glass=0;align=right;" parent="1" vertex="1" collapsed="1">
          <mxGeometry x="593" y="331" width="41" height="12" as="geometry">
            <mxRectangle x="593" y="331" width="118" height="81" as="alternateBounds" />
          </mxGeometry>
        </mxCell>
        <mxCell id="HjpI4oTt8wgdMNK6Tnfc-64" value="&lt;span style=&quot;font-size: 8px;&quot;&gt;FS voltage =&amp;nbsp;± 0.828V&lt;/span&gt;" style="text;align=left;verticalAlign=middle;spacingLeft=4;spacingRight=4;overflow=hidden;points=[[0,0.5],[1,0.5]];portConstraint=eastwest;rotatable=0;whiteSpace=wrap;html=1;rounded=0;fillColor=default;" parent="HjpI4oTt8wgdMNK6Tnfc-63" vertex="1">
          <mxGeometry y="12" width="118" height="16" as="geometry" />
        </mxCell>
        <mxCell id="HjpI4oTt8wgdMNK6Tnfc-65" value="&lt;font style=&quot;font-size: 8px;&quot;&gt;sensitivity = 1.66mV/nm&lt;/font&gt;&lt;span style=&quot;text-wrap: nowrap; color: rgba(0, 0, 0, 0); font-family: monospace; font-size: 0px;&quot;&gt;%3CmxGraphModel%3E%3Croot%3E%3CmxCell%20id%3D%220%22%2F%3E%3CmxCell%20id%3D%221%22%20parent%3D%220%22%2F%3E%3CmxCell%20id%3D%222%22%20value%3D%22%26lt%3Bfont%20style%3D%26quot%3Bfont-size%3A%208px%3B%26quot%3B%26gt%3BVb%20%3D%201.25%26lt%3B%2Ffont%26gt%3B%22%20style%3D%22text%3BstrokeColor%3Dnone%3BfillColor%3Dnone%3Balign%3Dleft%3BverticalAlign%3Dmiddle%3BspacingLeft%3D4%3BspacingRight%3D4%3Boverflow%3Dhidden%3Bpoints%3D%5B%5B0%2C0.5%5D%2C%5B1%2C0.5%5D%5D%3BportConstraint%3Deastwest%3Brotatable%3D0%3BwhiteSpace%3Dwrap%3Bhtml%3D1%3B%22%20vertex%3D%221%22%20parent%3D%221%22%3E%3CmxGeometry%20y%3D%22532%22%20width%3D%22118%22%20height%3D%2217%22%20as%3D%22geometry%22%2F%3E%3C%2FmxCell%3E%3C%2Froot%3E%3C%2FmxGraphModel%3E&lt;/span&gt;" style="text;align=left;verticalAlign=middle;spacingLeft=4;spacingRight=4;overflow=hidden;points=[[0,0.5],[1,0.5]];portConstraint=eastwest;rotatable=0;whiteSpace=wrap;html=1;fillColor=default;" parent="HjpI4oTt8wgdMNK6Tnfc-63" vertex="1">
          <mxGeometry y="28" width="118" height="19" as="geometry" />
        </mxCell>
        <mxCell id="HjpI4oTt8wgdMNK6Tnfc-66" value="&lt;span style=&quot;font-size: 8px;&quot;&gt;e_n @55kHz = 4.2uV/rtHz&lt;/span&gt;" style="text;align=left;verticalAlign=middle;spacingLeft=4;spacingRight=4;overflow=hidden;points=[[0,0.5],[1,0.5]];portConstraint=eastwest;rotatable=0;whiteSpace=wrap;html=1;fillColor=default;" parent="HjpI4oTt8wgdMNK6Tnfc-63" vertex="1">
          <mxGeometry y="47" width="118" height="17" as="geometry" />
        </mxCell>
        <mxCell id="HjpI4oTt8wgdMNK6Tnfc-67" value="" style="text;align=left;verticalAlign=middle;spacingLeft=4;spacingRight=4;overflow=hidden;points=[[0,0.5],[1,0.5]];portConstraint=eastwest;rotatable=0;whiteSpace=wrap;html=1;fillColor=default;" parent="HjpI4oTt8wgdMNK6Tnfc-63" vertex="1">
          <mxGeometry y="64" width="118" height="17" as="geometry" />
        </mxCell>
      </root>
    </mxGraphModel>
  </diagram>
</mxfile>
